<svg width="213" height="78" viewBox="0 0 213 78" fill="none" xmlns="http://www.w3.org/2000/svg">
<path d="M103.057 69.2324C103.92 69.2325 104.664 69.392 105.288 69.7119C105.912 70.0239 106.393 70.4558 106.729 71.0078C107.064 71.5597 107.232 72.1998 107.232 72.9277C107.232 73.6637 107.105 74.3401 106.849 74.9561C106.593 75.564 106.232 76.0958 105.769 76.5518C105.305 76.9997 104.748 77.3477 104.101 77.5957C103.461 77.8437 102.756 77.9678 101.988 77.9678C101.124 77.9678 100.381 77.8119 99.7568 77.5C99.1329 77.1801 98.6524 76.7442 98.3164 76.1924C97.9805 75.6405 97.8126 75.0003 97.8125 74.2725C97.8125 73.5365 97.9403 72.8639 98.1963 72.2559C98.4523 71.6399 98.8124 71.1081 99.2764 70.6602C99.7404 70.2042 100.293 69.8525 100.933 69.6045C101.581 69.3565 102.289 69.2324 103.057 69.2324ZM122.111 69.2324C122.887 69.2324 123.576 69.3677 124.176 69.6396C124.776 69.9116 125.224 70.3044 125.52 70.8164L123.804 72.1836C123.612 71.8638 123.36 71.6201 123.048 71.4521C122.744 71.2842 122.38 71.2003 121.956 71.2002C121.548 71.2002 121.176 71.2721 120.84 71.416C120.512 71.56 120.227 71.7643 119.987 72.0283C119.747 72.2922 119.563 72.6041 119.436 72.9639C119.308 73.3159 119.243 73.7002 119.243 74.1162C119.243 74.4921 119.323 74.8244 119.483 75.1123C119.651 75.3922 119.887 75.6125 120.191 75.7725C120.503 75.9245 120.872 76 121.296 76C121.672 76 122.032 75.9244 122.376 75.7725C122.728 75.6205 123.052 75.3722 123.348 75.0283L124.752 76.4082C124.28 76.9762 123.735 77.3801 123.119 77.6201C122.503 77.852 121.819 77.9678 121.067 77.9678C120.211 77.9677 119.463 77.812 118.823 77.5C118.191 77.188 117.703 76.756 117.359 76.2041C117.015 75.6442 116.844 75.0003 116.844 74.2725C116.844 73.5445 116.972 72.8719 117.228 72.2559C117.484 71.6399 117.844 71.1081 118.308 70.6602C118.772 70.2042 119.324 69.8525 119.964 69.6045C120.612 69.3565 121.327 69.2325 122.111 69.2324ZM175.607 69.2324C176.471 69.2325 177.215 69.392 177.839 69.7119C178.463 70.0239 178.943 70.4558 179.279 71.0078C179.615 71.5597 179.783 72.1998 179.783 72.9277C179.783 73.6637 179.655 74.3401 179.399 74.9561C179.143 75.564 178.783 76.0958 178.319 76.5518C177.855 76.9997 177.299 77.3477 176.651 77.5957C176.011 77.8437 175.307 77.9678 174.539 77.9678C173.675 77.9678 172.932 77.8119 172.308 77.5C171.684 77.1801 171.203 76.7442 170.867 76.1924C170.531 75.6405 170.363 75.0003 170.363 74.2725C170.363 73.5365 170.491 72.8639 170.747 72.2559C171.003 71.6399 171.363 71.1081 171.827 70.6602C172.291 70.2042 172.843 69.8525 173.483 69.6045C174.131 69.3565 174.839 69.2324 175.607 69.2324ZM201.342 69.2324C202.118 69.2324 202.806 69.3677 203.406 69.6396C204.006 69.9116 204.454 70.3044 204.75 70.8164L203.034 72.1836C202.842 71.8638 202.59 71.6201 202.278 71.4521C201.974 71.2842 201.61 71.2003 201.187 71.2002C200.779 71.2002 200.406 71.2721 200.07 71.416C199.742 71.56 199.458 71.7643 199.218 72.0283C198.978 72.2922 198.794 72.6041 198.666 72.9639C198.538 73.3159 198.474 73.7002 198.474 74.1162C198.474 74.4921 198.554 74.8244 198.714 75.1123C198.882 75.3922 199.118 75.6125 199.422 75.7725C199.734 75.9245 200.102 76 200.526 76C200.902 76 201.263 75.9244 201.606 75.7725C201.958 75.6205 202.282 75.3722 202.578 75.0283L203.982 76.4082C203.511 76.9761 202.966 77.3801 202.351 77.6201C201.735 77.8521 201.05 77.9678 200.298 77.9678C199.442 77.9677 198.694 77.812 198.054 77.5C197.422 77.188 196.934 76.756 196.59 76.2041C196.246 75.6442 196.074 75.0003 196.074 74.2725C196.074 73.5445 196.202 72.8719 196.458 72.2559C196.714 71.6399 197.074 71.1081 197.538 70.6602C198.002 70.2042 198.554 69.8525 199.194 69.6045C199.842 69.3565 200.558 69.2325 201.342 69.2324ZM2.98633 74.7666L5.82031 69.4004H8.01562L8.61719 74.8389L11.4717 69.4004H13.8242L9.41992 77.7998H6.87598L6.26465 72.7295L3.58789 77.7998H1.03223L0 69.4004H2.33984L2.98633 74.7666ZM18.2637 69.4004C19.3435 69.4004 20.1758 69.6364 20.7598 70.1084C21.3515 70.5804 21.6475 71.2364 21.6475 72.0762C21.6474 72.7801 21.4748 73.3959 21.1309 73.9238C20.7949 74.4437 20.3153 74.8478 19.6914 75.1357C19.5709 75.1914 19.4453 75.2393 19.3164 75.2842L20.7471 77.7998H18.2637L17.0117 75.5684H15.8164L15.3711 77.7998H12.9951L14.6758 69.4004H18.2637ZM30.626 77.7998H28.2617L27.9248 76.168H24.3477L23.3779 77.7998H20.8701L26.2578 69.4004H28.5986L30.626 77.7998ZM36.5439 69.4004C37.6319 69.4004 38.4715 69.6364 39.0635 70.1084C39.6554 70.5803 39.9521 71.2438 39.9521 72.0996C39.9521 72.8036 39.7833 73.4202 39.4473 73.9482C39.1113 74.476 38.6316 74.8839 38.0078 75.1719C37.3838 75.4599 36.6478 75.6045 35.7998 75.6045H34.125L33.6875 77.7998H31.3115L32.9922 69.4004H36.5439ZM64.4121 69.4004C65.4919 69.4004 66.3243 69.6364 66.9082 70.1084C67.4999 70.5804 67.7959 71.2364 67.7959 72.0762C67.7959 72.7801 67.6233 73.3959 67.2793 73.9238C66.9433 74.4437 66.4637 74.8478 65.8398 75.1357C65.7193 75.1914 65.5937 75.2393 65.4648 75.2842L66.8955 77.7998H64.4121L63.1602 75.5684H61.9648L61.5195 77.7998H59.1436L60.8242 69.4004H64.4121ZM75.9102 71.2363H71.6748L71.3945 72.6523H75.1309L74.7822 74.4277H71.043L70.7383 75.9639H75.1426L74.7588 77.7998H68.0264L69.707 69.4004H76.2822L75.9102 71.2363ZM78.4648 77.7998H76.0889L77.7695 69.4004H80.1455L78.4648 77.7998ZM86.5693 73.9941L87.4873 69.4004H89.8154L88.1357 77.7998H86.1797L83.4023 73.1914L82.4834 77.7998H80.1553L81.8359 69.4004H83.791L86.5693 73.9941ZM97.707 71.2363H93.5078L93.1396 73.084H96.8438L96.4717 74.9199H92.7734L92.1992 77.7998H89.8232L91.5039 69.4004H98.0791L97.707 71.2363ZM112.869 69.4004C113.949 69.4004 114.781 69.6364 115.365 70.1084C115.957 70.5804 116.253 71.2364 116.253 72.0762C116.253 72.7801 116.08 73.3959 115.736 73.9238C115.4 74.4437 114.921 74.8478 114.297 75.1357C114.176 75.1914 114.051 75.2393 113.922 75.2842L115.353 77.7998H112.869L111.617 75.5684H110.422L109.977 77.7998H107.601L109.281 69.4004H112.869ZM133.227 71.2363H128.991L128.711 72.6523H132.447L132.099 74.4277H128.359L128.055 75.9639H132.459L132.075 77.7998H125.343L127.023 69.4004H133.599L133.227 71.2363ZM157.622 69.4004C158.71 69.4004 159.55 69.6364 160.142 70.1084C160.733 70.5803 161.03 71.2438 161.03 72.0996C161.03 72.8036 160.862 73.4203 160.526 73.9482C160.19 74.4762 159.71 74.8839 159.086 75.1719C158.462 75.4599 157.726 75.6045 156.878 75.6045H155.203L154.766 77.7998H152.39L154.07 69.4004H157.622ZM166.389 69.4004C167.469 69.4004 168.301 69.6364 168.885 70.1084C169.476 70.5804 169.772 71.2364 169.772 72.0762C169.772 72.7799 169.601 73.3959 169.257 73.9238C168.921 74.4438 168.44 74.8477 167.816 75.1357C167.696 75.1914 167.57 75.2393 167.441 75.2842L168.872 77.7998H166.389L165.137 75.5684H163.941L163.496 77.7998H161.12L162.801 69.4004H166.389ZM188.062 71.2842H185.494L184.187 77.7998H181.811L183.118 71.2842H180.538L180.923 69.4004H188.446L188.062 71.2842ZM195.535 71.2363H191.3L191.02 72.6523H194.756L194.407 74.4277H190.668L190.363 75.9639H194.768L194.384 77.7998H187.651L189.332 69.4004H195.907L195.535 71.2363ZM212.531 71.2842H209.963L208.655 77.7998H206.279L207.587 71.2842H205.007L205.392 69.4004H212.915L212.531 71.2842ZM102.853 71.2002C102.445 71.2002 102.076 71.2757 101.748 71.4277C101.42 71.5797 101.14 71.7962 100.908 72.0762C100.684 72.348 100.513 72.6599 100.393 73.0117C100.273 73.3637 100.212 73.736 100.212 74.1279C100.212 74.4959 100.288 74.8243 100.44 75.1123C100.6 75.3922 100.824 75.6125 101.112 75.7725C101.408 75.9244 101.768 76 102.192 76C102.608 76 102.976 75.9243 103.296 75.7725C103.624 75.6205 103.9 75.4077 104.124 75.1357C104.356 74.8559 104.532 74.5403 104.652 74.1885C104.772 73.8366 104.832 73.4642 104.832 73.0723C104.832 72.6963 104.753 72.3679 104.593 72.0879C104.441 71.8079 104.216 71.5924 103.92 71.4404C103.632 71.2805 103.276 71.2002 102.853 71.2002ZM175.403 71.2002C174.995 71.2002 174.627 71.2757 174.299 71.4277C173.971 71.5797 173.691 71.7962 173.459 72.0762C173.235 72.348 173.063 72.6599 172.943 73.0117C172.823 73.3637 172.763 73.736 172.763 74.1279C172.763 74.4959 172.839 74.8243 172.991 75.1123C173.151 75.3922 173.375 75.6125 173.663 75.7725C173.959 75.9244 174.319 76 174.743 76C175.159 76 175.527 75.9243 175.847 75.7725C176.175 75.6205 176.451 75.4077 176.675 75.1357C176.907 74.8559 177.083 74.5403 177.203 74.1885C177.323 73.8366 177.383 73.4642 177.383 73.0723C177.383 72.6963 177.304 72.3679 177.144 72.0879C176.992 71.8079 176.767 71.5924 176.471 71.4404C176.183 71.2805 175.827 71.2002 175.403 71.2002ZM49.46 71.5596C49.7718 71.5596 50.0519 71.6361 50.2998 71.7881C50.5557 71.9401 50.7592 72.1445 50.9111 72.4004C51.0631 72.6484 51.1396 72.9283 51.1396 73.2402C51.1396 73.5441 51.0631 73.8241 50.9111 74.0801C50.7591 74.336 50.5557 74.5404 50.2998 74.6924C50.0519 74.8443 49.7718 74.9199 49.46 74.9199C49.156 74.9199 48.8751 74.8444 48.6191 74.6924C48.3633 74.5404 48.1598 74.336 48.0078 74.0801C47.8559 73.8241 47.7793 73.5441 47.7793 73.2402C47.7793 72.9283 47.8559 72.6483 48.0078 72.4004C48.1597 72.1445 48.3633 71.9401 48.6191 71.7881C48.8751 71.6361 49.156 71.5596 49.46 71.5596ZM142.706 71.5596C143.018 71.5596 143.298 71.6361 143.546 71.7881C143.802 71.9401 144.005 72.1445 144.157 72.4004C144.309 72.6484 144.386 72.9283 144.386 73.2402C144.386 73.5441 144.309 73.8241 144.157 74.0801C144.005 74.336 143.802 74.5404 143.546 74.6924C143.298 74.8443 143.018 74.9199 142.706 74.9199C142.402 74.9199 142.121 74.8444 141.865 74.6924C141.609 74.5404 141.406 74.336 141.254 74.0801C141.102 73.8241 141.025 73.5441 141.025 73.2402C141.025 72.9283 141.102 72.6483 141.254 72.4004C141.406 72.1445 141.609 71.9401 141.865 71.7881C142.121 71.6361 142.402 71.5596 142.706 71.5596ZM25.3887 74.416H27.5635L27.0029 71.6982L25.3887 74.416ZM16.1797 73.7324H17.5918C18.1195 73.7324 18.5275 73.6082 18.8154 73.3604C19.1034 73.1124 19.2471 72.7597 19.2471 72.3037C19.247 71.952 19.1312 71.6924 18.8994 71.5244C18.6675 71.3565 18.3435 71.2725 17.9277 71.2725H16.6787L16.1797 73.7324ZM34.4941 73.7324H35.9082C36.428 73.7323 36.8322 73.6083 37.1201 73.3604C37.4081 73.1124 37.5518 72.7597 37.5518 72.3037C37.5517 71.9521 37.4358 71.6924 37.2041 71.5244C36.9721 71.3564 36.6474 71.2725 36.2314 71.2725H34.9863L34.4941 73.7324ZM62.3281 73.7324H63.7402C64.2679 73.7324 64.676 73.6082 64.9639 73.3604C65.2519 73.1124 65.3955 72.7597 65.3955 72.3037C65.3954 71.952 65.2796 71.6924 65.0479 71.5244C64.8159 71.3565 64.492 71.2725 64.0762 71.2725H62.8271L62.3281 73.7324ZM110.785 73.7324H112.197C112.725 73.7324 113.133 73.6082 113.421 73.3604C113.709 73.1124 113.853 72.7597 113.853 72.3037C113.852 71.952 113.737 71.6924 113.505 71.5244C113.273 71.3565 112.949 71.2725 112.533 71.2725H111.284L110.785 73.7324ZM155.572 73.7324H156.986C157.506 73.7323 157.91 73.6083 158.198 73.3604C158.486 73.1124 158.63 72.7597 158.63 72.3037C158.63 71.9521 158.514 71.6924 158.282 71.5244C158.05 71.3564 157.726 71.2725 157.31 71.2725H156.064L155.572 73.7324ZM164.305 73.7324H165.717C166.245 73.7324 166.653 73.6082 166.94 73.3604C167.228 73.1124 167.372 72.7597 167.372 72.3037C167.372 71.952 167.256 71.6924 167.024 71.5244C166.792 71.3565 166.469 71.2725 166.053 71.2725H164.804L164.305 73.7324ZM200.328 35.8164C202.696 35.8164 204.596 36.5313 206.026 37.9619C207.506 39.3925 208.246 41.2426 208.246 43.5117C208.246 45.2876 207.827 46.8419 206.988 48.1738C206.199 49.5058 205.114 50.5671 203.732 51.3564C202.4 52.0964 200.92 52.4658 199.292 52.4658C196.924 52.4658 195 51.751 193.52 50.3203C192.04 48.8403 191.3 46.9895 191.3 44.7695C191.3 42.0564 192.188 39.8857 193.964 38.2578C195.74 36.6298 197.861 35.8164 200.328 35.8164ZM23.8936 33.0898L41.3672 0H54.9092L58.6172 33.5459L76.2217 0H90.7256L63.5674 51.7998H47.8789L44.1152 20.5371L27.6035 51.7998H11.8418L5.47754 0H19.9072L23.8936 33.0898ZM118.102 0C124.761 4.22344e-05 129.892 1.45559 133.493 4.36621C137.144 7.27687 138.97 11.322 138.97 16.502C138.97 20.8433 137.908 24.6424 135.787 27.8984C133.715 31.1049 130.755 33.5961 126.907 35.3721C126.165 35.7144 125.398 36.0225 124.604 36.2988L133.419 51.7998H118.102L110.383 38.0361H103.011L100.268 51.7998H85.6152L95.9756 0H118.102ZM172.656 0C179.366 0 184.546 1.4556 188.196 4.36621C191.847 7.27688 193.673 11.3717 193.673 16.6504C193.673 20.9916 192.636 24.79 190.564 28.0459C188.492 31.3019 185.533 33.8178 181.685 35.5938C177.837 37.3697 173.298 38.2578 168.068 38.2578H157.743L155.045 51.7998H140.393L150.753 0H172.656ZM105.258 26.7139H113.957C117.213 26.7139 119.729 25.9491 121.505 24.4199C123.281 22.8906 124.169 20.7201 124.169 17.9082C124.169 15.7375 123.454 14.1337 122.023 13.0977C120.593 12.0617 118.595 11.5439 116.029 11.5439H108.33L105.258 26.7139ZM160.018 26.7139H168.734C171.941 26.7139 174.433 25.9493 176.209 24.4199C177.985 22.8906 178.873 20.72 178.873 17.9082C178.873 15.7375 178.157 14.1337 176.727 13.0977C175.296 12.0618 173.298 11.5439 170.732 11.5439H163.052L160.018 26.7139Z" fill="black"/>
</svg>
